<svg width="731" height="180" viewBox="0 0 731 180" fill="none" xmlns="http://www.w3.org/2000/svg">
<path d="M641.02 104.932C641.02 80.9743 660.616 61.2061 685.924 61.2061C711.232 61.2061 731 81.1453 731 104.932C731 128.719 711.403 148.829 685.924 148.829C660.445 148.829 641.02 129.061 641.02 104.932ZM707.197 105.103C707.197 93.3721 698.151 83.659 685.924 83.659C673.698 83.659 664.806 93.3721 664.806 105.103C664.806 116.834 673.681 126.547 685.924 126.547C698.168 126.547 707.197 116.834 707.197 105.103Z" fill="#42307D"/>
<path d="M602.117 146.657H625.903V63.7028H602.117V146.64V146.657Z" fill="#42307D"/>
<path d="M624.207 50.5211C629.93 44.7979 629.93 35.5188 624.207 29.7956C618.484 24.0724 609.205 24.0724 603.482 29.7956C597.759 35.5188 597.759 44.7979 603.482 50.5211C609.205 56.2443 618.484 56.2443 624.207 50.5211Z" fill="#42307D"/>
<path d="M497.448 63.7028H522.756L544.542 125.538L566.156 63.7028H591.464L565.831 132.909C561.813 143.631 554.614 149 544.388 149C534.162 149 526.621 143.631 522.773 132.909L497.465 63.7028H497.448Z" fill="#42307D"/>
<path d="M463.129 146.657H486.915V63.7028H463.129V146.64V146.657Z" fill="#42307D"/>
<path d="M485.212 50.5273C490.935 44.8041 490.935 35.525 485.212 29.8018C479.489 24.0786 470.21 24.0786 464.487 29.8018C458.764 35.525 458.764 44.8041 464.487 50.5273C470.21 56.2505 479.489 56.2505 485.212 50.5273Z" fill="#42307D"/>
<path d="M423.5 25.5001V146.64H447.303V25.5001H423.5Z" fill="#42307D"/>
<path d="M319.351 104.932C319.351 80.9743 338.948 61.2061 364.256 61.2061C389.564 61.2061 409.331 81.1453 409.331 104.932C409.331 128.719 389.735 148.829 364.256 148.829C338.777 148.829 319.351 129.061 319.351 104.932ZM385.528 105.103C385.528 93.3721 376.482 83.659 364.256 83.659C352.029 83.659 343.137 93.3721 343.137 105.103C343.137 116.834 352.012 126.547 364.256 126.547C376.499 126.547 385.528 116.834 385.528 105.103Z" fill="#42307D"/>
<path d="M220 146.278V33.5001H244.47V78.902H258.885C260.219 75.3793 262.408 71.8566 265.093 68.18L292.401 33.5001H320.223L288.058 74.8834C283.526 80.9199 281.184 85.1095 281.184 89.2991C281.184 93.4888 283.526 97.5074 288.058 103.544L321.232 146.278H291.239L265.093 111.923C262.408 108.4 260.407 104.878 259.056 101.372H244.487V146.278H220Z" fill="#42307D"/>
<path d="M0 40C0 17.9086 17.9086 0 40 0H140C162.091 0 180 17.9086 180 40V140C180 162.091 162.091 180 140 180H40C17.9086 180 0 162.091 0 140V40Z" fill="#42307D"/>
<path fill-rule="evenodd" clip-rule="evenodd" d="M122.25 180H140C151.005 180 160.973 175.556 168.205 168.363L135.932 136.525C128.447 129.14 118.355 125 107.84 125H67.5L122.25 180Z" fill="#E9D7FE"/>
<path fill-rule="evenodd" clip-rule="evenodd" d="M0 55.25V140C0 151.655 4.98491 162.146 12.939 169.457L67.5 125V0L0 55.25Z" fill="#B692F6"/>
<path d="M154 62.5C154 79.0685 140.569 92.5 124 92.5C107.431 92.5 94 79.0685 94 62.5C94 45.9315 107.431 32.5 124 32.5C140.569 32.5 154 45.9315 154 62.5Z" fill="#F9F5FF"/>
</svg>
